<svg width="1498" height="1032" viewBox="0 0 1498 1032" fill="none" xmlns="http://www.w3.org/2000/svg">
<rect width="1498" height="1032" fill="white"/>
<ellipse cx="263" cy="434" rx="6" ry="14" fill="#3FA3FF"/>
<ellipse cx="327" cy="403.5" rx="6" ry="16.5" fill="#3FA3FF"/>
<ellipse cx="309.5" cy="491" rx="11.5" ry="21" fill="#3FA3FF"/>
<ellipse cx="251.5" cy="345" rx="11.5" ry="21" fill="#3FA3FF"/>
<ellipse cx="375" cy="382" rx="6" ry="14" fill="#3FA3FF"/>
<ellipse cx="439" cy="351.5" rx="6" ry="16.5" fill="#3FA3FF"/>
<ellipse cx="421.5" cy="439" rx="11.5" ry="21" fill="#3FA3FF"/>
<ellipse cx="363.5" cy="293" rx="11.5" ry="21" fill="#3FA3FF"/>
<ellipse cx="386" cy="601" rx="6" ry="14" fill="#3FA3FF"/>
<ellipse cx="450" cy="570.5" rx="6" ry="16.5" fill="#3FA3FF"/>
<ellipse cx="432.5" cy="658" rx="11.5" ry="21" fill="#3FA3FF"/>
<ellipse cx="374.5" cy="512" rx="11.5" ry="21" fill="#3FA3FF"/>
<ellipse cx="479" cy="392" rx="6" ry="14" fill="#3FA3FF"/>
<ellipse cx="543" cy="361.5" rx="6" ry="16.5" fill="#3FA3FF"/>
<ellipse cx="525.5" cy="449" rx="11.5" ry="21" fill="#3FA3FF"/>
<ellipse cx="467.5" cy="303" rx="11.5" ry="21" fill="#3FA3FF"/>
<ellipse cx="508" cy="680" rx="6" ry="14" fill="#3FA3FF"/>
<ellipse cx="572" cy="649.5" rx="6" ry="16.5" fill="#3FA3FF"/>
<ellipse cx="554.5" cy="737" rx="11.5" ry="21" fill="#3FA3FF"/>
<ellipse cx="496.5" cy="591" rx="11.5" ry="21" fill="#3FA3FF"/>
<ellipse cx="153" cy="532" rx="6" ry="14" fill="#3FA3FF"/>
<ellipse cx="217" cy="501.5" rx="6" ry="16.5" fill="#3FA3FF"/>
<ellipse cx="199.5" cy="589" rx="11.5" ry="21" fill="#3FA3FF"/>
<ellipse cx="275" cy="611" rx="6" ry="14" fill="#3FA3FF"/>
<ellipse cx="339" cy="580.5" rx="6" ry="16.5" fill="#3FA3FF"/>
<ellipse cx="321.5" cy="668" rx="11.5" ry="21" fill="#3FA3FF"/>
<ellipse cx="263.5" cy="522" rx="11.5" ry="21" fill="#3FA3FF"/>
<ellipse cx="138" cy="263" rx="6" ry="14" fill="#3FA3FF"/>
<ellipse cx="184.5" cy="320" rx="11.5" ry="21" fill="#3FA3FF"/>
<ellipse cx="214" cy="409.5" rx="6" ry="16.5" fill="#3FA3FF"/>
<ellipse cx="138.5" cy="351" rx="11.5" ry="21" fill="#3FA3FF"/>
<ellipse cx="502" cy="273" rx="6" ry="14" fill="#3FA3FF"/>
<ellipse cx="566" cy="242.5" rx="6" ry="16.5" fill="#3FA3FF"/>
<ellipse cx="548.5" cy="330" rx="11.5" ry="21" fill="#3FA3FF"/>
<ellipse cx="660.5" cy="278" rx="11.5" ry="21" fill="#3FA3FF"/>
<ellipse cx="625" cy="440" rx="6" ry="14" fill="#3FA3FF"/>
<ellipse cx="689" cy="409.5" rx="6" ry="16.5" fill="#3FA3FF"/>
<ellipse cx="671.5" cy="497" rx="11.5" ry="21" fill="#3FA3FF"/>
<ellipse cx="613.5" cy="351" rx="11.5" ry="21" fill="#3FA3FF"/>
<ellipse cx="764.5" cy="288" rx="11.5" ry="21" fill="#3FA3FF"/>
<ellipse cx="747" cy="519" rx="6" ry="14" fill="#3FA3FF"/>
<ellipse cx="811" cy="488.5" rx="6" ry="16.5" fill="#3FA3FF"/>
<ellipse cx="793.5" cy="576" rx="11.5" ry="21" fill="#3FA3FF"/>
<ellipse cx="735.5" cy="430" rx="11.5" ry="21" fill="#3FA3FF"/>
<ellipse cx="602" cy="762" rx="6" ry="14" fill="#3FA3FF"/>
<ellipse cx="666" cy="731.5" rx="6" ry="16.5" fill="#3FA3FF"/>
<ellipse cx="648.5" cy="819" rx="11.5" ry="21" fill="#3FA3FF"/>
<ellipse cx="590.5" cy="673" rx="11.5" ry="21" fill="#3FA3FF"/>
<ellipse cx="741.5" cy="610" rx="11.5" ry="21" fill="#3FA3FF"/>
<ellipse cx="637" cy="646" rx="6" ry="14" fill="#3FA3FF"/>
<ellipse cx="701" cy="615.5" rx="6" ry="16.5" fill="#3FA3FF"/>
<ellipse cx="683.5" cy="703" rx="11.5" ry="21" fill="#3FA3FF"/>
<ellipse cx="625.5" cy="557" rx="11.5" ry="21" fill="#3FA3FF"/>
<ellipse cx="631.5" cy="737" rx="11.5" ry="21" fill="#3FA3FF"/>
<ellipse cx="724" cy="841" rx="6" ry="14" fill="#3FA3FF"/>
<ellipse cx="788" cy="810.5" rx="6" ry="16.5" fill="#3FA3FF"/>
<ellipse cx="770.5" cy="898" rx="11.5" ry="21" fill="#3FA3FF"/>
<ellipse cx="712.5" cy="752" rx="11.5" ry="21" fill="#3FA3FF"/>
<ellipse cx="859" cy="473" rx="6" ry="14" fill="#3FA3FF"/>
<ellipse cx="923" cy="442.5" rx="6" ry="16.5" fill="#3FA3FF"/>
<ellipse cx="905.5" cy="530" rx="11.5" ry="21" fill="#3FA3FF"/>
<ellipse cx="981" cy="552" rx="6" ry="14" fill="#3FA3FF"/>
<ellipse cx="1045" cy="521.5" rx="6" ry="16.5" fill="#3FA3FF"/>
<ellipse cx="1027.5" cy="609" rx="11.5" ry="21" fill="#3FA3FF"/>
<ellipse cx="969.5" cy="463" rx="11.5" ry="21" fill="#3FA3FF"/>
<ellipse cx="836" cy="795" rx="6" ry="14" fill="#3FA3FF"/>
<ellipse cx="900" cy="764.5" rx="6" ry="16.5" fill="#3FA3FF"/>
<ellipse cx="824.5" cy="706" rx="11.5" ry="21" fill="#3FA3FF"/>
<ellipse cx="975.5" cy="643" rx="11.5" ry="21" fill="#3FA3FF"/>
<ellipse cx="871" cy="679" rx="6" ry="14" fill="#3FA3FF"/>
<ellipse cx="935" cy="648.5" rx="6" ry="16.5" fill="#3FA3FF"/>
<ellipse cx="917.5" cy="736" rx="11.5" ry="21" fill="#3FA3FF"/>
<ellipse cx="859.5" cy="590" rx="11.5" ry="21" fill="#3FA3FF"/>
<ellipse cx="856" cy="320" rx="6" ry="14" fill="#3FA3FF"/>
<ellipse cx="920" cy="289.5" rx="6" ry="16.5" fill="#3FA3FF"/>
<ellipse cx="902.5" cy="377" rx="11.5" ry="21" fill="#3FA3FF"/>
<ellipse cx="844.5" cy="231" rx="11.5" ry="21" fill="#3FA3FF"/>
<ellipse cx="850.5" cy="411" rx="11.5" ry="21" fill="#3FA3FF"/>
<ellipse cx="968" cy="274" rx="6" ry="14" fill="#3FA3FF"/>
<ellipse cx="1032" cy="243.5" rx="6" ry="16.5" fill="#3FA3FF"/>
<ellipse cx="1014.5" cy="331" rx="11.5" ry="21" fill="#3FA3FF"/>
<ellipse cx="1090" cy="353" rx="6" ry="14" fill="#3FA3FF"/>
<ellipse cx="1154" cy="322.5" rx="6" ry="16.5" fill="#3FA3FF"/>
<ellipse cx="1136.5" cy="410" rx="11.5" ry="21" fill="#3FA3FF"/>
<ellipse cx="1078.5" cy="264" rx="11.5" ry="21" fill="#3FA3FF"/>
<ellipse cx="933.5" cy="507" rx="11.5" ry="21" fill="#3FA3FF"/>
<ellipse cx="1084.5" cy="444" rx="11.5" ry="21" fill="#3FA3FF"/>
<ellipse cx="980" cy="480" rx="6" ry="14" fill="#3FA3FF"/>
<ellipse cx="1044" cy="449.5" rx="6" ry="16.5" fill="#3FA3FF"/>
<ellipse cx="1026.5" cy="537" rx="11.5" ry="21" fill="#3FA3FF"/>
<ellipse cx="968.5" cy="391" rx="11.5" ry="21" fill="#3FA3FF"/>
<ellipse cx="865.5" cy="770" rx="11.5" ry="21" fill="#3FA3FF"/>
<ellipse cx="1028" cy="691.5" rx="6" ry="16.5" fill="#3FA3FF"/>
<ellipse cx="1010.5" cy="779" rx="11.5" ry="21" fill="#3FA3FF"/>
<ellipse cx="1076" cy="676" rx="6" ry="14" fill="#3FA3FF"/>
<ellipse cx="1140" cy="645.5" rx="6" ry="16.5" fill="#3FA3FF"/>
<ellipse cx="1064.5" cy="587" rx="11.5" ry="21" fill="#3FA3FF"/>
<ellipse cx="1111" cy="560" rx="6" ry="14" fill="#3FA3FF"/>
<ellipse cx="1157.5" cy="617" rx="11.5" ry="21" fill="#3FA3FF"/>
<ellipse cx="1105.5" cy="651" rx="11.5" ry="21" fill="#3FA3FF"/>
<ellipse cx="946.5" cy="785" rx="11.5" ry="21" fill="#3FA3FF"/>
<ellipse cx="362" cy="772.5" rx="6" ry="16.5" fill="#3FA3FF"/>
<ellipse cx="344.5" cy="860" rx="11.5" ry="21" fill="#3FA3FF"/>
<ellipse cx="333" cy="687" rx="6" ry="14" fill="#3FA3FF"/>
<ellipse cx="379.5" cy="744" rx="11.5" ry="21" fill="#3FA3FF"/>
<ellipse cx="327.5" cy="778" rx="11.5" ry="21" fill="#3FA3FF"/>
<ellipse cx="420" cy="882" rx="6" ry="14" fill="#3FA3FF"/>
<ellipse cx="484" cy="851.5" rx="6" ry="16.5" fill="#3FA3FF"/>
<ellipse cx="466.5" cy="939" rx="11.5" ry="21" fill="#3FA3FF"/>
<ellipse cx="408.5" cy="793" rx="11.5" ry="21" fill="#3FA3FF"/>
<ellipse cx="167" cy="736.5" rx="6" ry="16.5" fill="#3FA3FF"/>
<ellipse cx="149.5" cy="824" rx="11.5" ry="21" fill="#3FA3FF"/>
<ellipse cx="184.5" cy="708" rx="11.5" ry="21" fill="#3FA3FF"/>
<ellipse cx="132.5" cy="742" rx="11.5" ry="21" fill="#3FA3FF"/>
<ellipse cx="225" cy="846" rx="6" ry="14" fill="#3FA3FF"/>
<ellipse cx="289" cy="815.5" rx="6" ry="16.5" fill="#3FA3FF"/>
<ellipse cx="271.5" cy="903" rx="11.5" ry="21" fill="#3FA3FF"/>
<ellipse cx="213.5" cy="757" rx="11.5" ry="21" fill="#3FA3FF"/>
<ellipse cx="514" cy="450" rx="6" ry="14" fill="#3FA3FF"/>
<ellipse cx="578" cy="419.5" rx="6" ry="16.5" fill="#3FA3FF"/>
<ellipse cx="560.5" cy="507" rx="11.5" ry="21" fill="#3FA3FF"/>
<ellipse cx="779" cy="128.5" rx="6" ry="16.5" fill="#3FA3FF"/>
<ellipse cx="761.5" cy="216" rx="11.5" ry="21" fill="#3FA3FF"/>
<ellipse cx="837" cy="238" rx="6" ry="14" fill="#3FA3FF"/>
<ellipse cx="901" cy="207.5" rx="6" ry="16.5" fill="#3FA3FF"/>
<ellipse cx="883.5" cy="295" rx="11.5" ry="21" fill="#3FA3FF"/>
<ellipse cx="825.5" cy="149" rx="11.5" ry="21" fill="#3FA3FF"/>
<ellipse cx="1000.5" cy="55" rx="11.5" ry="21" fill="#3FA3FF"/>
<ellipse cx="1076" cy="77" rx="6" ry="14" fill="#3FA3FF"/>
<ellipse cx="1140" cy="46.5" rx="6" ry="16.5" fill="#3FA3FF"/>
<ellipse cx="1122.5" cy="134" rx="11.5" ry="21" fill="#3FA3FF"/>
<ellipse cx="931" cy="320" rx="6" ry="14" fill="#3FA3FF"/>
<ellipse cx="995" cy="289.5" rx="6" ry="16.5" fill="#3FA3FF"/>
<ellipse cx="977.5" cy="377" rx="11.5" ry="21" fill="#3FA3FF"/>
<ellipse cx="919.5" cy="231" rx="11.5" ry="21" fill="#3FA3FF"/>
<ellipse cx="1070.5" cy="168" rx="11.5" ry="21" fill="#3FA3FF"/>
<ellipse cx="966" cy="204" rx="6" ry="14" fill="#3FA3FF"/>
<ellipse cx="1030" cy="173.5" rx="6" ry="16.5" fill="#3FA3FF"/>
<ellipse cx="1012.5" cy="261" rx="11.5" ry="21" fill="#3FA3FF"/>
<ellipse cx="954.5" cy="115" rx="11.5" ry="21" fill="#3FA3FF"/>
<ellipse cx="960.5" cy="295" rx="11.5" ry="21" fill="#3FA3FF"/>
<ellipse cx="1053" cy="399" rx="6" ry="14" fill="#3FA3FF"/>
<ellipse cx="1117" cy="368.5" rx="6" ry="16.5" fill="#3FA3FF"/>
<ellipse cx="1099.5" cy="456" rx="11.5" ry="21" fill="#3FA3FF"/>
<ellipse cx="1041.5" cy="310" rx="11.5" ry="21" fill="#3FA3FF"/>
<ellipse cx="1188" cy="31" rx="6" ry="14" fill="#3FA3FF"/>
<ellipse cx="1234.5" cy="88" rx="11.5" ry="21" fill="#3FA3FF"/>
<ellipse cx="1310" cy="110" rx="6" ry="14" fill="#3FA3FF"/>
<ellipse cx="1374" cy="79.5" rx="6" ry="16.5" fill="#3FA3FF"/>
<ellipse cx="1356.5" cy="167" rx="11.5" ry="21" fill="#3FA3FF"/>
<ellipse cx="1298.5" cy="21" rx="11.5" ry="21" fill="#3FA3FF"/>
<ellipse cx="1165" cy="353" rx="6" ry="14" fill="#3FA3FF"/>
<ellipse cx="1229" cy="322.5" rx="6" ry="16.5" fill="#3FA3FF"/>
<ellipse cx="1153.5" cy="264" rx="11.5" ry="21" fill="#3FA3FF"/>
<ellipse cx="1304.5" cy="201" rx="11.5" ry="21" fill="#3FA3FF"/>
<ellipse cx="1200" cy="237" rx="6" ry="14" fill="#3FA3FF"/>
<ellipse cx="1264" cy="206.5" rx="6" ry="16.5" fill="#3FA3FF"/>
<ellipse cx="1246.5" cy="294" rx="11.5" ry="21" fill="#3FA3FF"/>
<ellipse cx="1188.5" cy="148" rx="11.5" ry="21" fill="#3FA3FF"/>
<ellipse cx="1262.5" cy="65" rx="11.5" ry="21" fill="#3FA3FF"/>
<ellipse cx="1309" cy="38" rx="6" ry="14" fill="#3FA3FF"/>
<ellipse cx="1355.5" cy="95" rx="11.5" ry="21" fill="#3FA3FF"/>
<ellipse cx="1194.5" cy="328" rx="11.5" ry="21" fill="#3FA3FF"/>
<ellipse cx="1357" cy="249.5" rx="6" ry="16.5" fill="#3FA3FF"/>
<ellipse cx="1339.5" cy="337" rx="11.5" ry="21" fill="#3FA3FF"/>
<ellipse cx="1405" cy="234" rx="6" ry="14" fill="#3FA3FF"/>
<ellipse cx="1469" cy="203.5" rx="6" ry="16.5" fill="#3FA3FF"/>
<ellipse cx="1393.5" cy="145" rx="11.5" ry="21" fill="#3FA3FF"/>
<ellipse cx="1440" cy="118" rx="6" ry="14" fill="#3FA3FF"/>
<ellipse cx="1486.5" cy="175" rx="11.5" ry="21" fill="#3FA3FF"/>
<ellipse cx="1434.5" cy="209" rx="11.5" ry="21" fill="#3FA3FF"/>
<ellipse cx="1275.5" cy="343" rx="11.5" ry="21" fill="#3FA3FF"/>
<ellipse cx="813" cy="409.5" rx="6" ry="16.5" fill="#3FA3FF"/>
<ellipse cx="795.5" cy="497" rx="11.5" ry="21" fill="#3FA3FF"/>
<ellipse cx="889.5" cy="65" rx="11.5" ry="21" fill="#3FA3FF"/>
<ellipse cx="746" cy="558.5" rx="6" ry="16.5" fill="#3FA3FF"/>
<ellipse cx="728.5" cy="646" rx="11.5" ry="21" fill="#3FA3FF"/>
<ellipse cx="804" cy="668" rx="6" ry="14" fill="#3FA3FF"/>
<ellipse cx="868" cy="637.5" rx="6" ry="16.5" fill="#3FA3FF"/>
<ellipse cx="850.5" cy="725" rx="11.5" ry="21" fill="#3FA3FF"/>
<ellipse cx="792.5" cy="579" rx="11.5" ry="21" fill="#3FA3FF"/>
<ellipse cx="967.5" cy="485" rx="11.5" ry="21" fill="#3FA3FF"/>
<ellipse cx="1043" cy="507" rx="6" ry="14" fill="#3FA3FF"/>
<ellipse cx="1107" cy="476.5" rx="6" ry="16.5" fill="#3FA3FF"/>
<ellipse cx="1089.5" cy="564" rx="11.5" ry="21" fill="#3FA3FF"/>
<ellipse cx="898" cy="750" rx="6" ry="14" fill="#3FA3FF"/>
<ellipse cx="962" cy="719.5" rx="6" ry="16.5" fill="#3FA3FF"/>
<ellipse cx="944.5" cy="807" rx="11.5" ry="21" fill="#3FA3FF"/>
<ellipse cx="886.5" cy="661" rx="11.5" ry="21" fill="#3FA3FF"/>
<ellipse cx="1037.5" cy="598" rx="11.5" ry="21" fill="#3FA3FF"/>
<ellipse cx="933" cy="634" rx="6" ry="14" fill="#3FA3FF"/>
<ellipse cx="997" cy="603.5" rx="6" ry="16.5" fill="#3FA3FF"/>
<ellipse cx="979.5" cy="691" rx="11.5" ry="21" fill="#3FA3FF"/>
<ellipse cx="921.5" cy="545" rx="11.5" ry="21" fill="#3FA3FF"/>
<ellipse cx="927.5" cy="725" rx="11.5" ry="21" fill="#3FA3FF"/>
<ellipse cx="1020" cy="829" rx="6" ry="14" fill="#3FA3FF"/>
<ellipse cx="1084" cy="798.5" rx="6" ry="16.5" fill="#3FA3FF"/>
<ellipse cx="1066.5" cy="886" rx="11.5" ry="21" fill="#3FA3FF"/>
<ellipse cx="1008.5" cy="740" rx="11.5" ry="21" fill="#3FA3FF"/>
<ellipse cx="1155" cy="461" rx="6" ry="14" fill="#3FA3FF"/>
<ellipse cx="1201.5" cy="518" rx="11.5" ry="21" fill="#3FA3FF"/>
<ellipse cx="1277" cy="540" rx="6" ry="14" fill="#3FA3FF"/>
<ellipse cx="1341" cy="509.5" rx="6" ry="16.5" fill="#3FA3FF"/>
<ellipse cx="1323.5" cy="597" rx="11.5" ry="21" fill="#3FA3FF"/>
<ellipse cx="1265.5" cy="451" rx="11.5" ry="21" fill="#3FA3FF"/>
<ellipse cx="1132" cy="783" rx="6" ry="14" fill="#3FA3FF"/>
<ellipse cx="1196" cy="752.5" rx="6" ry="16.5" fill="#3FA3FF"/>
<ellipse cx="1120.5" cy="694" rx="11.5" ry="21" fill="#3FA3FF"/>
<ellipse cx="1271.5" cy="631" rx="11.5" ry="21" fill="#3FA3FF"/>
<ellipse cx="1167" cy="667" rx="6" ry="14" fill="#3FA3FF"/>
<ellipse cx="1231" cy="636.5" rx="6" ry="16.5" fill="#3FA3FF"/>
<ellipse cx="1213.5" cy="724" rx="11.5" ry="21" fill="#3FA3FF"/>
<ellipse cx="1155.5" cy="578" rx="11.5" ry="21" fill="#3FA3FF"/>
<ellipse cx="1229.5" cy="495" rx="11.5" ry="21" fill="#3FA3FF"/>
<ellipse cx="1276" cy="468" rx="6" ry="14" fill="#3FA3FF"/>
<ellipse cx="1322.5" cy="525" rx="11.5" ry="21" fill="#3FA3FF"/>
<ellipse cx="1161.5" cy="758" rx="11.5" ry="21" fill="#3FA3FF"/>
<ellipse cx="1324" cy="679.5" rx="6" ry="16.5" fill="#3FA3FF"/>
<ellipse cx="1306.5" cy="767" rx="11.5" ry="21" fill="#3FA3FF"/>
<ellipse cx="1372" cy="664" rx="6" ry="14" fill="#3FA3FF"/>
<ellipse cx="1436" cy="633.5" rx="6" ry="16.5" fill="#3FA3FF"/>
<ellipse cx="1360.5" cy="575" rx="11.5" ry="21" fill="#3FA3FF"/>
<ellipse cx="1407" cy="548" rx="6" ry="14" fill="#3FA3FF"/>
<ellipse cx="1453.5" cy="605" rx="11.5" ry="21" fill="#3FA3FF"/>
<ellipse cx="1401.5" cy="639" rx="11.5" ry="21" fill="#3FA3FF"/>
<ellipse cx="1242.5" cy="773" rx="11.5" ry="21" fill="#3FA3FF"/>
<ellipse cx="1289" cy="719.5" rx="6" ry="16.5" fill="#3FA3FF"/>
<ellipse cx="1306.5" cy="691" rx="11.5" ry="21" fill="#3FA3FF"/>
<ellipse cx="1254.5" cy="725" rx="11.5" ry="21" fill="#3FA3FF"/>
<ellipse cx="1399.5" cy="734" rx="11.5" ry="21" fill="#3FA3FF"/>
<ellipse cx="1335.5" cy="740" rx="11.5" ry="21" fill="#3FA3FF"/>
<ellipse cx="859" cy="860.5" rx="6" ry="16.5" fill="#3FA3FF"/>
<ellipse cx="876.5" cy="832" rx="11.5" ry="21" fill="#3FA3FF"/>
<ellipse cx="824.5" cy="866" rx="11.5" ry="21" fill="#3FA3FF"/>
<ellipse cx="969.5" cy="875" rx="11.5" ry="21" fill="#3FA3FF"/>
<ellipse cx="905.5" cy="881" rx="11.5" ry="21" fill="#3FA3FF"/>
<ellipse cx="622" cy="901.5" rx="6" ry="16.5" fill="#3FA3FF"/>
<ellipse cx="639.5" cy="873" rx="11.5" ry="21" fill="#3FA3FF"/>
<ellipse cx="587.5" cy="907" rx="11.5" ry="21" fill="#3FA3FF"/>
<ellipse cx="732.5" cy="916" rx="11.5" ry="21" fill="#3FA3FF"/>
<ellipse cx="668.5" cy="922" rx="11.5" ry="21" fill="#3FA3FF"/>
<ellipse cx="224" cy="260.5" rx="6" ry="16.5" fill="#3FA3FF"/>
<ellipse cx="241.5" cy="232" rx="11.5" ry="21" fill="#3FA3FF"/>
<ellipse cx="189.5" cy="266" rx="11.5" ry="21" fill="#3FA3FF"/>
<ellipse cx="334.5" cy="275" rx="11.5" ry="21" fill="#3FA3FF"/>
<ellipse cx="270.5" cy="281" rx="11.5" ry="21" fill="#3FA3FF"/>
<ellipse cx="780" cy="839.5" rx="6" ry="16.5" fill="#3FA3FF"/>
<ellipse cx="762.5" cy="927" rx="11.5" ry="21" fill="#3FA3FF"/>
<ellipse cx="856.5" cy="495" rx="11.5" ry="21" fill="#3FA3FF"/>
<ellipse cx="29" cy="642.5" rx="6" ry="16.5" fill="#3FA3FF"/>
<ellipse cx="11.5" cy="730" rx="11.5" ry="21" fill="#3FA3FF"/>
<ellipse cx="87" cy="752" rx="6" ry="14" fill="#3FA3FF"/>
<ellipse cx="151" cy="721.5" rx="6" ry="16.5" fill="#3FA3FF"/>
<ellipse cx="133.5" cy="809" rx="11.5" ry="21" fill="#3FA3FF"/>
<ellipse cx="75.5" cy="663" rx="11.5" ry="21" fill="#3FA3FF"/>
<ellipse cx="250.5" cy="569" rx="11.5" ry="21" fill="#3FA3FF"/>
<ellipse cx="326" cy="591" rx="6" ry="14" fill="#3FA3FF"/>
<ellipse cx="390" cy="560.5" rx="6" ry="16.5" fill="#3FA3FF"/>
<ellipse cx="372.5" cy="648" rx="11.5" ry="21" fill="#3FA3FF"/>
<ellipse cx="181" cy="834" rx="6" ry="14" fill="#3FA3FF"/>
<ellipse cx="245" cy="803.5" rx="6" ry="16.5" fill="#3FA3FF"/>
<ellipse cx="227.5" cy="891" rx="11.5" ry="21" fill="#3FA3FF"/>
<ellipse cx="169.5" cy="745" rx="11.5" ry="21" fill="#3FA3FF"/>
<ellipse cx="320.5" cy="682" rx="11.5" ry="21" fill="#3FA3FF"/>
<ellipse cx="216" cy="718" rx="6" ry="14" fill="#3FA3FF"/>
<ellipse cx="280" cy="687.5" rx="6" ry="16.5" fill="#3FA3FF"/>
<ellipse cx="262.5" cy="775" rx="11.5" ry="21" fill="#3FA3FF"/>
<ellipse cx="204.5" cy="629" rx="11.5" ry="21" fill="#3FA3FF"/>
<ellipse cx="210.5" cy="809" rx="11.5" ry="21" fill="#3FA3FF"/>
<ellipse cx="303" cy="913" rx="6" ry="14" fill="#3FA3FF"/>
<ellipse cx="367" cy="882.5" rx="6" ry="16.5" fill="#3FA3FF"/>
<ellipse cx="349.5" cy="970" rx="11.5" ry="21" fill="#3FA3FF"/>
<ellipse cx="291.5" cy="824" rx="11.5" ry="21" fill="#3FA3FF"/>
<ellipse cx="438" cy="545" rx="6" ry="14" fill="#3FA3FF"/>
<ellipse cx="484.5" cy="602" rx="11.5" ry="21" fill="#3FA3FF"/>
<ellipse cx="560" cy="624" rx="6" ry="14" fill="#3FA3FF"/>
<ellipse cx="624" cy="593.5" rx="6" ry="16.5" fill="#3FA3FF"/>
<ellipse cx="606.5" cy="681" rx="11.5" ry="21" fill="#3FA3FF"/>
<ellipse cx="548.5" cy="535" rx="11.5" ry="21" fill="#3FA3FF"/>
<ellipse cx="415" cy="867" rx="6" ry="14" fill="#3FA3FF"/>
<ellipse cx="479" cy="836.5" rx="6" ry="16.5" fill="#3FA3FF"/>
<ellipse cx="403.5" cy="778" rx="11.5" ry="21" fill="#3FA3FF"/>
<ellipse cx="554.5" cy="715" rx="11.5" ry="21" fill="#3FA3FF"/>
<ellipse cx="450" cy="751" rx="6" ry="14" fill="#3FA3FF"/>
<ellipse cx="514" cy="720.5" rx="6" ry="16.5" fill="#3FA3FF"/>
<ellipse cx="496.5" cy="808" rx="11.5" ry="21" fill="#3FA3FF"/>
<ellipse cx="438.5" cy="662" rx="11.5" ry="21" fill="#3FA3FF"/>
<ellipse cx="512.5" cy="579" rx="11.5" ry="21" fill="#3FA3FF"/>
<ellipse cx="559" cy="552" rx="6" ry="14" fill="#3FA3FF"/>
<ellipse cx="605.5" cy="609" rx="11.5" ry="21" fill="#3FA3FF"/>
<ellipse cx="444.5" cy="842" rx="11.5" ry="21" fill="#3FA3FF"/>
<ellipse cx="607" cy="763.5" rx="6" ry="16.5" fill="#3FA3FF"/>
<ellipse cx="589.5" cy="851" rx="11.5" ry="21" fill="#3FA3FF"/>
<ellipse cx="655" cy="748" rx="6" ry="14" fill="#3FA3FF"/>
<ellipse cx="719" cy="717.5" rx="6" ry="16.5" fill="#3FA3FF"/>
<ellipse cx="643.5" cy="659" rx="11.5" ry="21" fill="#3FA3FF"/>
<ellipse cx="690" cy="632" rx="6" ry="14" fill="#3FA3FF"/>
<ellipse cx="736.5" cy="689" rx="11.5" ry="21" fill="#3FA3FF"/>
<ellipse cx="684.5" cy="723" rx="11.5" ry="21" fill="#3FA3FF"/>
<ellipse cx="525.5" cy="857" rx="11.5" ry="21" fill="#3FA3FF"/>
<ellipse cx="63" cy="923.5" rx="6" ry="16.5" fill="#3FA3FF"/>
<ellipse cx="45.5" cy="1011" rx="11.5" ry="21" fill="#3FA3FF"/>
<ellipse cx="139.5" cy="579" rx="11.5" ry="21" fill="#3FA3FF"/>
<ellipse cx="68" cy="292.5" rx="6" ry="16.5" fill="#3FA3FF"/>
<ellipse cx="50.5" cy="380" rx="11.5" ry="21" fill="#3FA3FF"/>
<ellipse cx="126" cy="402" rx="6" ry="14" fill="#3FA3FF"/>
<ellipse cx="190" cy="371.5" rx="6" ry="16.5" fill="#3FA3FF"/>
<ellipse cx="172.5" cy="459" rx="11.5" ry="21" fill="#3FA3FF"/>
<ellipse cx="114.5" cy="313" rx="11.5" ry="21" fill="#3FA3FF"/>
<ellipse cx="289.5" cy="219" rx="11.5" ry="21" fill="#3FA3FF"/>
<ellipse cx="365" cy="241" rx="6" ry="14" fill="#3FA3FF"/>
<ellipse cx="429" cy="210.5" rx="6" ry="16.5" fill="#3FA3FF"/>
<ellipse cx="411.5" cy="298" rx="11.5" ry="21" fill="#3FA3FF"/>
<ellipse cx="220" cy="484" rx="6" ry="14" fill="#3FA3FF"/>
<ellipse cx="284" cy="453.5" rx="6" ry="16.5" fill="#3FA3FF"/>
<ellipse cx="266.5" cy="541" rx="11.5" ry="21" fill="#3FA3FF"/>
<ellipse cx="208.5" cy="395" rx="11.5" ry="21" fill="#3FA3FF"/>
<ellipse cx="359.5" cy="332" rx="11.5" ry="21" fill="#3FA3FF"/>
<ellipse cx="255" cy="368" rx="6" ry="14" fill="#3FA3FF"/>
<ellipse cx="319" cy="337.5" rx="6" ry="16.5" fill="#3FA3FF"/>
<ellipse cx="301.5" cy="425" rx="11.5" ry="21" fill="#3FA3FF"/>
<ellipse cx="243.5" cy="279" rx="11.5" ry="21" fill="#3FA3FF"/>
<ellipse cx="249.5" cy="459" rx="11.5" ry="21" fill="#3FA3FF"/>
<ellipse cx="342" cy="563" rx="6" ry="14" fill="#3FA3FF"/>
<ellipse cx="406" cy="532.5" rx="6" ry="16.5" fill="#3FA3FF"/>
<ellipse cx="388.5" cy="620" rx="11.5" ry="21" fill="#3FA3FF"/>
<ellipse cx="330.5" cy="474" rx="11.5" ry="21" fill="#3FA3FF"/>
<ellipse cx="477" cy="195" rx="6" ry="14" fill="#3FA3FF"/>
<ellipse cx="523.5" cy="252" rx="11.5" ry="21" fill="#3FA3FF"/>
<ellipse cx="599" cy="274" rx="6" ry="14" fill="#3FA3FF"/>
<ellipse cx="663" cy="243.5" rx="6" ry="16.5" fill="#3FA3FF"/>
<ellipse cx="645.5" cy="331" rx="11.5" ry="21" fill="#3FA3FF"/>
<ellipse cx="587.5" cy="185" rx="11.5" ry="21" fill="#3FA3FF"/>
<ellipse cx="454" cy="517" rx="6" ry="14" fill="#3FA3FF"/>
<ellipse cx="518" cy="486.5" rx="6" ry="16.5" fill="#3FA3FF"/>
<ellipse cx="442.5" cy="428" rx="11.5" ry="21" fill="#3FA3FF"/>
<ellipse cx="593.5" cy="365" rx="11.5" ry="21" fill="#3FA3FF"/>
<ellipse cx="489" cy="401" rx="6" ry="14" fill="#3FA3FF"/>
<ellipse cx="553" cy="370.5" rx="6" ry="16.5" fill="#3FA3FF"/>
<ellipse cx="535.5" cy="458" rx="11.5" ry="21" fill="#3FA3FF"/>
<ellipse cx="477.5" cy="312" rx="11.5" ry="21" fill="#3FA3FF"/>
<ellipse cx="551.5" cy="229" rx="11.5" ry="21" fill="#3FA3FF"/>
<ellipse cx="598" cy="202" rx="6" ry="14" fill="#3FA3FF"/>
<ellipse cx="644.5" cy="259" rx="11.5" ry="21" fill="#3FA3FF"/>
<ellipse cx="483.5" cy="492" rx="11.5" ry="21" fill="#3FA3FF"/>
<ellipse cx="646" cy="413.5" rx="6" ry="16.5" fill="#3FA3FF"/>
<ellipse cx="628.5" cy="501" rx="11.5" ry="21" fill="#3FA3FF"/>
<ellipse cx="694" cy="398" rx="6" ry="14" fill="#3FA3FF"/>
<ellipse cx="758" cy="367.5" rx="6" ry="16.5" fill="#3FA3FF"/>
<ellipse cx="682.5" cy="309" rx="11.5" ry="21" fill="#3FA3FF"/>
<ellipse cx="729" cy="282" rx="6" ry="14" fill="#3FA3FF"/>
<ellipse cx="775.5" cy="339" rx="11.5" ry="21" fill="#3FA3FF"/>
<ellipse cx="723.5" cy="373" rx="11.5" ry="21" fill="#3FA3FF"/>
<ellipse cx="564.5" cy="507" rx="11.5" ry="21" fill="#3FA3FF"/>
<ellipse cx="102" cy="573.5" rx="6" ry="16.5" fill="#3FA3FF"/>
<ellipse cx="84.5" cy="661" rx="11.5" ry="21" fill="#3FA3FF"/>
<ellipse cx="178.5" cy="229" rx="11.5" ry="21" fill="#3FA3FF"/>
<ellipse cx="726" cy="386.5" rx="6" ry="16.5" fill="#3FA3FF"/>
<ellipse cx="708.5" cy="474" rx="11.5" ry="21" fill="#3FA3FF"/>
<ellipse cx="784" cy="496" rx="6" ry="14" fill="#3FA3FF"/>
<ellipse cx="848" cy="465.5" rx="6" ry="16.5" fill="#3FA3FF"/>
<ellipse cx="830.5" cy="553" rx="11.5" ry="21" fill="#3FA3FF"/>
<ellipse cx="772.5" cy="407" rx="11.5" ry="21" fill="#3FA3FF"/>
<ellipse cx="947.5" cy="313" rx="11.5" ry="21" fill="#3FA3FF"/>
<ellipse cx="1023" cy="335" rx="6" ry="14" fill="#3FA3FF"/>
<ellipse cx="1087" cy="304.5" rx="6" ry="16.5" fill="#3FA3FF"/>
<ellipse cx="1069.5" cy="392" rx="11.5" ry="21" fill="#3FA3FF"/>
<ellipse cx="878" cy="578" rx="6" ry="14" fill="#3FA3FF"/>
<ellipse cx="942" cy="547.5" rx="6" ry="16.5" fill="#3FA3FF"/>
<ellipse cx="924.5" cy="635" rx="11.5" ry="21" fill="#3FA3FF"/>
<ellipse cx="866.5" cy="489" rx="11.5" ry="21" fill="#3FA3FF"/>
<ellipse cx="1017.5" cy="426" rx="11.5" ry="21" fill="#3FA3FF"/>
<ellipse cx="913" cy="462" rx="6" ry="14" fill="#3FA3FF"/>
<ellipse cx="977" cy="431.5" rx="6" ry="16.5" fill="#3FA3FF"/>
<ellipse cx="959.5" cy="519" rx="11.5" ry="21" fill="#3FA3FF"/>
<ellipse cx="901.5" cy="373" rx="11.5" ry="21" fill="#3FA3FF"/>
<ellipse cx="907.5" cy="553" rx="11.5" ry="21" fill="#3FA3FF"/>
<ellipse cx="1000" cy="657" rx="6" ry="14" fill="#3FA3FF"/>
<ellipse cx="1064" cy="626.5" rx="6" ry="16.5" fill="#3FA3FF"/>
<ellipse cx="1046.5" cy="714" rx="11.5" ry="21" fill="#3FA3FF"/>
<ellipse cx="988.5" cy="568" rx="11.5" ry="21" fill="#3FA3FF"/>
<ellipse cx="1135" cy="289" rx="6" ry="14" fill="#3FA3FF"/>
<ellipse cx="1181.5" cy="346" rx="11.5" ry="21" fill="#3FA3FF"/>
<ellipse cx="1257" cy="368" rx="6" ry="14" fill="#3FA3FF"/>
<ellipse cx="1321" cy="337.5" rx="6" ry="16.5" fill="#3FA3FF"/>
<ellipse cx="1303.5" cy="425" rx="11.5" ry="21" fill="#3FA3FF"/>
<ellipse cx="1245.5" cy="279" rx="11.5" ry="21" fill="#3FA3FF"/>
<ellipse cx="1112" cy="611" rx="6" ry="14" fill="#3FA3FF"/>
<ellipse cx="1176" cy="580.5" rx="6" ry="16.5" fill="#3FA3FF"/>
<ellipse cx="1100.5" cy="522" rx="11.5" ry="21" fill="#3FA3FF"/>
<ellipse cx="1251.5" cy="459" rx="11.5" ry="21" fill="#3FA3FF"/>
<ellipse cx="1147" cy="495" rx="6" ry="14" fill="#3FA3FF"/>
<ellipse cx="1211" cy="464.5" rx="6" ry="16.5" fill="#3FA3FF"/>
<ellipse cx="1193.5" cy="552" rx="11.5" ry="21" fill="#3FA3FF"/>
<ellipse cx="1135.5" cy="406" rx="11.5" ry="21" fill="#3FA3FF"/>
<ellipse cx="1209.5" cy="323" rx="11.5" ry="21" fill="#3FA3FF"/>
<ellipse cx="1256" cy="296" rx="6" ry="14" fill="#3FA3FF"/>
<ellipse cx="1302.5" cy="353" rx="11.5" ry="21" fill="#3FA3FF"/>
<ellipse cx="1141.5" cy="586" rx="11.5" ry="21" fill="#3FA3FF"/>
<ellipse cx="1304" cy="507.5" rx="6" ry="16.5" fill="#3FA3FF"/>
<ellipse cx="1286.5" cy="595" rx="11.5" ry="21" fill="#3FA3FF"/>
<ellipse cx="1352" cy="492" rx="6" ry="14" fill="#3FA3FF"/>
<ellipse cx="1416" cy="461.5" rx="6" ry="16.5" fill="#3FA3FF"/>
<ellipse cx="1340.5" cy="403" rx="11.5" ry="21" fill="#3FA3FF"/>
<ellipse cx="1387" cy="376" rx="6" ry="14" fill="#3FA3FF"/>
<ellipse cx="1433.5" cy="433" rx="11.5" ry="21" fill="#3FA3FF"/>
<ellipse cx="1381.5" cy="467" rx="11.5" ry="21" fill="#3FA3FF"/>
<ellipse cx="1222.5" cy="601" rx="11.5" ry="21" fill="#3FA3FF"/>
<ellipse cx="760" cy="667.5" rx="6" ry="16.5" fill="#3FA3FF"/>
<ellipse cx="742.5" cy="755" rx="11.5" ry="21" fill="#3FA3FF"/>
<ellipse cx="836.5" cy="323" rx="11.5" ry="21" fill="#3FA3FF"/>
<ellipse cx="322" cy="467.5" rx="6" ry="16.5" fill="#3FA3FF"/>
<ellipse cx="304.5" cy="555" rx="11.5" ry="21" fill="#3FA3FF"/>
<ellipse cx="380" cy="577" rx="6" ry="14" fill="#3FA3FF"/>
<ellipse cx="444" cy="546.5" rx="6" ry="16.5" fill="#3FA3FF"/>
<ellipse cx="426.5" cy="634" rx="11.5" ry="21" fill="#3FA3FF"/>
<ellipse cx="368.5" cy="488" rx="11.5" ry="21" fill="#3FA3FF"/>
<ellipse cx="543.5" cy="394" rx="11.5" ry="21" fill="#3FA3FF"/>
<ellipse cx="619" cy="416" rx="6" ry="14" fill="#3FA3FF"/>
<ellipse cx="683" cy="385.5" rx="6" ry="16.5" fill="#3FA3FF"/>
<ellipse cx="665.5" cy="473" rx="11.5" ry="21" fill="#3FA3FF"/>
<ellipse cx="474" cy="659" rx="6" ry="14" fill="#3FA3FF"/>
<ellipse cx="538" cy="628.5" rx="6" ry="16.5" fill="#3FA3FF"/>
<ellipse cx="520.5" cy="716" rx="11.5" ry="21" fill="#3FA3FF"/>
<ellipse cx="462.5" cy="570" rx="11.5" ry="21" fill="#3FA3FF"/>
<ellipse cx="613.5" cy="507" rx="11.5" ry="21" fill="#3FA3FF"/>
<ellipse cx="509" cy="543" rx="6" ry="14" fill="#3FA3FF"/>
<ellipse cx="573" cy="512.5" rx="6" ry="16.5" fill="#3FA3FF"/>
<ellipse cx="555.5" cy="600" rx="11.5" ry="21" fill="#3FA3FF"/>
<ellipse cx="497.5" cy="454" rx="11.5" ry="21" fill="#3FA3FF"/>
<ellipse cx="503.5" cy="634" rx="11.5" ry="21" fill="#3FA3FF"/>
<ellipse cx="596" cy="738" rx="6" ry="14" fill="#3FA3FF"/>
<ellipse cx="660" cy="707.5" rx="6" ry="16.5" fill="#3FA3FF"/>
<ellipse cx="642.5" cy="795" rx="11.5" ry="21" fill="#3FA3FF"/>
<ellipse cx="584.5" cy="649" rx="11.5" ry="21" fill="#3FA3FF"/>
<ellipse cx="731" cy="370" rx="6" ry="14" fill="#3FA3FF"/>
<ellipse cx="777.5" cy="427" rx="11.5" ry="21" fill="#3FA3FF"/>
<ellipse cx="853" cy="449" rx="6" ry="14" fill="#3FA3FF"/>
<ellipse cx="917" cy="418.5" rx="6" ry="16.5" fill="#3FA3FF"/>
<ellipse cx="899.5" cy="506" rx="11.5" ry="21" fill="#3FA3FF"/>
<ellipse cx="841.5" cy="360" rx="11.5" ry="21" fill="#3FA3FF"/>
<ellipse cx="708" cy="692" rx="6" ry="14" fill="#3FA3FF"/>
<ellipse cx="772" cy="661.5" rx="6" ry="16.5" fill="#3FA3FF"/>
<ellipse cx="696.5" cy="603" rx="11.5" ry="21" fill="#3FA3FF"/>
<ellipse cx="847.5" cy="540" rx="11.5" ry="21" fill="#3FA3FF"/>
<ellipse cx="743" cy="576" rx="6" ry="14" fill="#3FA3FF"/>
<ellipse cx="807" cy="545.5" rx="6" ry="16.5" fill="#3FA3FF"/>
<ellipse cx="789.5" cy="633" rx="11.5" ry="21" fill="#3FA3FF"/>
<ellipse cx="731.5" cy="487" rx="11.5" ry="21" fill="#3FA3FF"/>
<ellipse cx="805.5" cy="404" rx="11.5" ry="21" fill="#3FA3FF"/>
<ellipse cx="852" cy="377" rx="6" ry="14" fill="#3FA3FF"/>
<ellipse cx="898.5" cy="434" rx="11.5" ry="21" fill="#3FA3FF"/>
<ellipse cx="737.5" cy="667" rx="11.5" ry="21" fill="#3FA3FF"/>
<ellipse cx="900" cy="588.5" rx="6" ry="16.5" fill="#3FA3FF"/>
<ellipse cx="882.5" cy="676" rx="11.5" ry="21" fill="#3FA3FF"/>
<ellipse cx="948" cy="573" rx="6" ry="14" fill="#3FA3FF"/>
<ellipse cx="1012" cy="542.5" rx="6" ry="16.5" fill="#3FA3FF"/>
<ellipse cx="936.5" cy="484" rx="11.5" ry="21" fill="#3FA3FF"/>
<ellipse cx="983" cy="457" rx="6" ry="14" fill="#3FA3FF"/>
<ellipse cx="1029.5" cy="514" rx="11.5" ry="21" fill="#3FA3FF"/>
<ellipse cx="977.5" cy="548" rx="11.5" ry="21" fill="#3FA3FF"/>
<ellipse cx="818.5" cy="682" rx="11.5" ry="21" fill="#3FA3FF"/>
<ellipse cx="356" cy="748.5" rx="6" ry="16.5" fill="#3FA3FF"/>
<ellipse cx="338.5" cy="836" rx="11.5" ry="21" fill="#3FA3FF"/>
<ellipse cx="432.5" cy="404" rx="11.5" ry="21" fill="#3FA3FF"/>
<ellipse cx="502.5" cy="361" rx="11.5" ry="21" fill="#3FA3FF"/>
</svg>

