<svg width="4000" height="3200" viewBox="0 0 4000 3200" fill="none" xmlns="http://www.w3.org/2000/svg">
<rect width="1048" height="750" fill="white"/>
<ellipse cx="142" cy="224" rx="6" ry="14" fill="#3FA3FF"/>
<ellipse cx="206" cy="193.5" rx="6" ry="16.5" fill="#3FA3FF"/>
<ellipse cx="188.5" cy="281" rx="11.5" ry="21" fill="#3FA3FF"/>
<ellipse cx="130.5" cy="135" rx="11.5" ry="21" fill="#3FA3FF"/>
<ellipse cx="254" cy="172" rx="6" ry="14" fill="#3FA3FF"/>
<ellipse cx="318" cy="141.5" rx="6" ry="16.5" fill="#3FA3FF"/>
<ellipse cx="300.5" cy="229" rx="11.5" ry="21" fill="#3FA3FF"/>
<ellipse cx="242.5" cy="83" rx="11.5" ry="21" fill="#3FA3FF"/>
<ellipse cx="265" cy="391" rx="6" ry="14" fill="#3FA3FF"/>
<ellipse cx="329" cy="360.5" rx="6" ry="16.5" fill="#3FA3FF"/>
<ellipse cx="311.5" cy="448" rx="11.5" ry="21" fill="#3FA3FF"/>
<ellipse cx="253.5" cy="302" rx="11.5" ry="21" fill="#3FA3FF"/>
<ellipse cx="358" cy="182" rx="6" ry="14" fill="#3FA3FF"/>
<ellipse cx="422" cy="151.5" rx="6" ry="16.5" fill="#3FA3FF"/>
<ellipse cx="404.5" cy="239" rx="11.5" ry="21" fill="#3FA3FF"/>
<ellipse cx="346.5" cy="93" rx="11.5" ry="21" fill="#3FA3FF"/>
<ellipse cx="387" cy="470" rx="6" ry="14" fill="#3FA3FF"/>
<ellipse cx="451" cy="439.5" rx="6" ry="16.5" fill="#3FA3FF"/>
<ellipse cx="433.5" cy="527" rx="11.5" ry="21" fill="#3FA3FF"/>
<ellipse cx="375.5" cy="381" rx="11.5" ry="21" fill="#3FA3FF"/>
<ellipse cx="32" cy="322" rx="6" ry="14" fill="#3FA3FF"/>
<ellipse cx="96" cy="291.5" rx="6" ry="16.5" fill="#3FA3FF"/>
<ellipse cx="78.5" cy="379" rx="11.5" ry="21" fill="#3FA3FF"/>
<ellipse cx="154" cy="401" rx="6" ry="14" fill="#3FA3FF"/>
<ellipse cx="218" cy="370.5" rx="6" ry="16.5" fill="#3FA3FF"/>
<ellipse cx="200.5" cy="458" rx="11.5" ry="21" fill="#3FA3FF"/>
<ellipse cx="142.5" cy="312" rx="11.5" ry="21" fill="#3FA3FF"/>
<ellipse cx="17" cy="53" rx="6" ry="14" fill="#3FA3FF"/>
<ellipse cx="63.5" cy="110" rx="11.5" ry="21" fill="#3FA3FF"/>
<ellipse cx="93" cy="199.5" rx="6" ry="16.5" fill="#3FA3FF"/>
<ellipse cx="17.5" cy="141" rx="11.5" ry="21" fill="#3FA3FF"/>
<ellipse cx="381" cy="63" rx="6" ry="14" fill="#3FA3FF"/>
<ellipse cx="445" cy="32.5" rx="6" ry="16.5" fill="#3FA3FF"/>
<ellipse cx="427.5" cy="120" rx="11.5" ry="21" fill="#3FA3FF"/>
<ellipse cx="539.5" cy="68" rx="11.5" ry="21" fill="#3FA3FF"/>
<ellipse cx="504" cy="230" rx="6" ry="14" fill="#3FA3FF"/>
<ellipse cx="568" cy="199.5" rx="6" ry="16.5" fill="#3FA3FF"/>
<ellipse cx="550.5" cy="287" rx="11.5" ry="21" fill="#3FA3FF"/>
<ellipse cx="492.5" cy="141" rx="11.5" ry="21" fill="#3FA3FF"/>
<ellipse cx="643.5" cy="78" rx="11.5" ry="21" fill="#3FA3FF"/>
<ellipse cx="626" cy="309" rx="6" ry="14" fill="#3FA3FF"/>
<ellipse cx="690" cy="278.5" rx="6" ry="16.5" fill="#3FA3FF"/>
<ellipse cx="672.5" cy="366" rx="11.5" ry="21" fill="#3FA3FF"/>
<ellipse cx="614.5" cy="220" rx="11.5" ry="21" fill="#3FA3FF"/>
<ellipse cx="481" cy="552" rx="6" ry="14" fill="#3FA3FF"/>
<ellipse cx="545" cy="521.5" rx="6" ry="16.5" fill="#3FA3FF"/>
<ellipse cx="527.5" cy="609" rx="11.5" ry="21" fill="#3FA3FF"/>
<ellipse cx="469.5" cy="463" rx="11.5" ry="21" fill="#3FA3FF"/>
<ellipse cx="620.5" cy="400" rx="11.5" ry="21" fill="#3FA3FF"/>
<ellipse cx="516" cy="436" rx="6" ry="14" fill="#3FA3FF"/>
<ellipse cx="580" cy="405.5" rx="6" ry="16.5" fill="#3FA3FF"/>
<ellipse cx="562.5" cy="493" rx="11.5" ry="21" fill="#3FA3FF"/>
<ellipse cx="504.5" cy="347" rx="11.5" ry="21" fill="#3FA3FF"/>
<ellipse cx="510.5" cy="527" rx="11.5" ry="21" fill="#3FA3FF"/>
<ellipse cx="603" cy="631" rx="6" ry="14" fill="#3FA3FF"/>
<ellipse cx="667" cy="600.5" rx="6" ry="16.5" fill="#3FA3FF"/>
<ellipse cx="649.5" cy="688" rx="11.5" ry="21" fill="#3FA3FF"/>
<ellipse cx="591.5" cy="542" rx="11.5" ry="21" fill="#3FA3FF"/>
<ellipse cx="738" cy="263" rx="6" ry="14" fill="#3FA3FF"/>
<ellipse cx="802" cy="232.5" rx="6" ry="16.5" fill="#3FA3FF"/>
<ellipse cx="784.5" cy="320" rx="11.5" ry="21" fill="#3FA3FF"/>
<ellipse cx="860" cy="342" rx="6" ry="14" fill="#3FA3FF"/>
<ellipse cx="924" cy="311.5" rx="6" ry="16.5" fill="#3FA3FF"/>
<ellipse cx="906.5" cy="399" rx="11.5" ry="21" fill="#3FA3FF"/>
<ellipse cx="848.5" cy="253" rx="11.5" ry="21" fill="#3FA3FF"/>
<ellipse cx="715" cy="585" rx="6" ry="14" fill="#3FA3FF"/>
<ellipse cx="779" cy="554.5" rx="6" ry="16.5" fill="#3FA3FF"/>
<ellipse cx="703.5" cy="496" rx="11.5" ry="21" fill="#3FA3FF"/>
<ellipse cx="854.5" cy="433" rx="11.5" ry="21" fill="#3FA3FF"/>
<ellipse cx="750" cy="469" rx="6" ry="14" fill="#3FA3FF"/>
<ellipse cx="814" cy="438.5" rx="6" ry="16.5" fill="#3FA3FF"/>
<ellipse cx="796.5" cy="526" rx="11.5" ry="21" fill="#3FA3FF"/>
<ellipse cx="738.5" cy="380" rx="11.5" ry="21" fill="#3FA3FF"/>
<ellipse cx="735" cy="110" rx="6" ry="14" fill="#3FA3FF"/>
<ellipse cx="799" cy="79.5" rx="6" ry="16.5" fill="#3FA3FF"/>
<ellipse cx="781.5" cy="167" rx="11.5" ry="21" fill="#3FA3FF"/>
<ellipse cx="723.5" cy="21" rx="11.5" ry="21" fill="#3FA3FF"/>
<ellipse cx="729.5" cy="201" rx="11.5" ry="21" fill="#3FA3FF"/>
<ellipse cx="847" cy="64" rx="6" ry="14" fill="#3FA3FF"/>
<ellipse cx="911" cy="33.5" rx="6" ry="16.5" fill="#3FA3FF"/>
<ellipse cx="893.5" cy="121" rx="11.5" ry="21" fill="#3FA3FF"/>
<ellipse cx="969" cy="143" rx="6" ry="14" fill="#3FA3FF"/>
<ellipse cx="1033" cy="112.5" rx="6" ry="16.5" fill="#3FA3FF"/>
<ellipse cx="1015.5" cy="200" rx="11.5" ry="21" fill="#3FA3FF"/>
<ellipse cx="957.5" cy="54" rx="11.5" ry="21" fill="#3FA3FF"/>
<ellipse cx="812.5" cy="297" rx="11.5" ry="21" fill="#3FA3FF"/>
<ellipse cx="963.5" cy="234" rx="11.5" ry="21" fill="#3FA3FF"/>
<ellipse cx="859" cy="270" rx="6" ry="14" fill="#3FA3FF"/>
<ellipse cx="923" cy="239.5" rx="6" ry="16.5" fill="#3FA3FF"/>
<ellipse cx="905.5" cy="327" rx="11.5" ry="21" fill="#3FA3FF"/>
<ellipse cx="847.5" cy="181" rx="11.5" ry="21" fill="#3FA3FF"/>
<ellipse cx="744.5" cy="560" rx="11.5" ry="21" fill="#3FA3FF"/>
<ellipse cx="907" cy="481.5" rx="6" ry="16.5" fill="#3FA3FF"/>
<ellipse cx="889.5" cy="569" rx="11.5" ry="21" fill="#3FA3FF"/>
<ellipse cx="955" cy="466" rx="6" ry="14" fill="#3FA3FF"/>
<ellipse cx="1019" cy="435.5" rx="6" ry="16.5" fill="#3FA3FF"/>
<ellipse cx="943.5" cy="377" rx="11.5" ry="21" fill="#3FA3FF"/>
<ellipse cx="990" cy="350" rx="6" ry="14" fill="#3FA3FF"/>
<ellipse cx="1036.5" cy="407" rx="11.5" ry="21" fill="#3FA3FF"/>
<ellipse cx="984.5" cy="441" rx="11.5" ry="21" fill="#3FA3FF"/>
<ellipse cx="825.5" cy="575" rx="11.5" ry="21" fill="#3FA3FF"/>
<ellipse cx="241" cy="562.5" rx="6" ry="16.5" fill="#3FA3FF"/>
<ellipse cx="223.5" cy="650" rx="11.5" ry="21" fill="#3FA3FF"/>
<ellipse cx="212" cy="477" rx="6" ry="14" fill="#3FA3FF"/>
<ellipse cx="258.5" cy="534" rx="11.5" ry="21" fill="#3FA3FF"/>
<ellipse cx="206.5" cy="568" rx="11.5" ry="21" fill="#3FA3FF"/>
<ellipse cx="299" cy="672" rx="6" ry="14" fill="#3FA3FF"/>
<ellipse cx="363" cy="641.5" rx="6" ry="16.5" fill="#3FA3FF"/>
<ellipse cx="345.5" cy="729" rx="11.5" ry="21" fill="#3FA3FF"/>
<ellipse cx="287.5" cy="583" rx="11.5" ry="21" fill="#3FA3FF"/>
<ellipse cx="46" cy="526.5" rx="6" ry="16.5" fill="#3FA3FF"/>
<ellipse cx="28.5" cy="614" rx="11.5" ry="21" fill="#3FA3FF"/>
<ellipse cx="63.5" cy="498" rx="11.5" ry="21" fill="#3FA3FF"/>
<ellipse cx="11.5" cy="532" rx="11.5" ry="21" fill="#3FA3FF"/>
<ellipse cx="104" cy="636" rx="6" ry="14" fill="#3FA3FF"/>
<ellipse cx="168" cy="605.5" rx="6" ry="16.5" fill="#3FA3FF"/>
<ellipse cx="150.5" cy="693" rx="11.5" ry="21" fill="#3FA3FF"/>
<ellipse cx="92.5" cy="547" rx="11.5" ry="21" fill="#3FA3FF"/>
<ellipse cx="393" cy="240" rx="6" ry="14" fill="#3FA3FF"/>
<ellipse cx="457" cy="209.5" rx="6" ry="16.5" fill="#3FA3FF"/>
<ellipse cx="439.5" cy="297" rx="11.5" ry="21" fill="#3FA3FF"/>
<ellipse cx="381.5" cy="151" rx="11.5" ry="21" fill="#3FA3FF"/>
</svg>
